<?xml version="1.0" encoding="UTF-8" standalone="no"?>
<!-- Created with Inkscape (http://www.inkscape.org/) -->

<svg
   width="210mm"
   height="297mm"
   viewBox="0 0 210 297"
   version="1.1"
   id="svg1"
   inkscape:version="1.4 (86a8ad7, 2024-10-11)"
   sodipodi:docname="surf2fly_logo.svg"
   xmlns:inkscape="http://www.inkscape.org/namespaces/inkscape"
   xmlns:sodipodi="http://sodipodi.sourceforge.net/DTD/sodipodi-0.dtd"
   xmlns="http://www.w3.org/2000/svg"
   xmlns:svg="http://www.w3.org/2000/svg">
  <sodipodi:namedview
     id="namedview1"
     pagecolor="#ffffff"
     bordercolor="#000000"
     borderopacity="0.25"
     inkscape:showpageshadow="2"
     inkscape:pageopacity="0.0"
     inkscape:pagecheckerboard="0"
     inkscape:deskcolor="#d1d1d1"
     inkscape:document-units="mm"
     inkscape:zoom="1.1433196"
     inkscape:cx="-233.96782"
     inkscape:cy="249.71144"
     inkscape:window-width="3840"
     inkscape:window-height="2054"
     inkscape:window-x="-11"
     inkscape:window-y="-11"
     inkscape:window-maximized="1"
     inkscape:current-layer="layer1" />
  <defs
     id="defs1" />
  <g
     inkscape:label="Ebene 1"
     inkscape:groupmode="layer"
     id="layer1">
    <path
       style="fill:#000000"
       d="m 3.1319546,74.809651 c -0.915302,-0.19722 -2.074769,-0.71152 -2.86652698,-1.27151 -0.33554,-0.23731 -0.610073,-0.44791 -0.610073,-0.46798 0,-0.0201 0.292814,-0.37215 0.650697,-0.78239 l 0.650698,-0.74588 0.52238898,0.37869 c 0.662016,0.47992 1.804065,0.99298 2.472902,1.11094 1.490864,0.26294 2.772841,-0.0785 3.190946,-0.84989 0.216391,-0.39922 0.139394,-1.1828 -0.144802,-1.4736 -0.321304,-0.32877 -1.076204,-0.65608 -2.119275,-0.91889 -1.713131,-0.43162 -2.165553,-0.5699 -2.801672,-0.85627 -1.11738498,-0.50303 -1.71598098,-1.23902 -1.91662298,-2.35655 -0.322949,-1.79873 0.90669398,-3.47009 2.92132098,-3.97073 0.643311,-0.15986 2.266389,-0.1622 3.046766,-0.004 1.001613,0.20255 2.745859,1.02494 2.879719,1.35775 0.03492,0.0868 -0.990817,1.56166 -1.086127,1.56166 -0.01903,0 -0.382886,-0.18802 -0.808576,-0.41782 -1.397704,-0.75454 -2.870174,-0.97427 -3.784167,-0.56469 -0.514365,0.23049 -0.691471,0.40009 -0.88914,0.85144 -0.241629,0.55173 -0.04118,1.1731 0.492192,1.52574 0.43546,0.28791 1.001144,0.48729 2.271044,0.80043 2.079125,0.51269 3.118502,1.0095 3.691596,1.76452 0.491705,0.64779 0.608975,1.05805 0.573923,2.0078 -0.02675,0.72487 -0.06695,0.90515 -0.311756,1.39816 -0.496362,0.99961 -1.32913,1.61061 -2.640605,1.9374 -0.829992,0.20682 -2.390081,0.20039 -3.38485,-0.0139 z m 14.4743914,0.0478 c -1.492617,-0.31169 -2.74471,-1.3291 -3.313602,-2.69252 -0.436759,-1.04675 -0.471816,-1.46566 -0.471816,-5.6381 v -3.87805 h 1.106686 1.106685 v 3.70103 c 0,2.31591 0.03623,3.88861 0.09679,4.20223 0.205176,1.06241 0.777169,1.82285 1.673905,2.22537 0.435577,0.19551 0.59434,0.21857 1.505092,0.21857 0.911287,0 1.069259,-0.023 1.505092,-0.21888 0.974651,-0.43809 1.541221,-1.26701 1.685775,-2.46636 0.04597,-0.38139 0.08388,-2.26136 0.08425,-4.1777 l 6.72e-4,-3.48426 h 1.11345 1.113451 l -0.03474,4.03329 c -0.03264,3.78958 -0.04606,4.07231 -0.222069,4.67893 -0.282641,0.97412 -0.676626,1.64319 -1.340664,2.27672 -1.038729,0.991 -2.096149,1.34848 -3.947702,1.33458 -0.634003,-0.005 -1.381567,-0.0564 -1.661255,-0.11485 z m 12.062317,-6.13221 v -6.08677 l 3.607795,0.0301 c 3.49858,0.0292 3.62447,0.036 4.15873,0.2233 1.54892,0.54308 2.44761,1.54254 2.67524,2.97521 0.29622,1.86438 -0.69859,3.5271 -2.49576,4.17141 -0.2313,0.0829 -0.42054,0.18521 -0.42054,0.22731 0,0.0421 0.12277,0.23649 0.27284,0.43198 0.26881,0.35018 1.63013,2.16467 2.53814,3.38306 0.25564,0.34303 0.4648,0.64787 0.4648,0.67742 0,0.0296 -0.57419,0.0537 -1.27598,0.0537 h -1.27598 l -0.38977,-0.52792 c -0.21437,-0.29036 -0.91873,-1.24061 -1.56525,-2.11167 l -1.17548,-1.58376 h -1.40844 -1.40844 l -0.0216,1.37259 c -0.0119,0.75492 -0.0113,1.61965 10e-4,1.92162 0.0409,0.97568 0.0999,0.92914 -1.176656,0.92914 h -1.104999 z m 6.734715,-0.21538 c 0.60135,-0.17016 1.25477,-0.75713 1.4,-1.25763 0.22458,-0.77399 0.0186,-1.64345 -0.49043,-2.06982 -0.66556,-0.55752 -0.90585,-0.60376 -3.23968,-0.6234 -1.15648,-0.01 -2.10684,0.003 -2.1119,0.0285 -0.005,0.0254 -0.015,0.94896 -0.0221,2.05231 l -0.0129,2.00609 h 1.9981 c 1.5792,0 2.09891,-0.0285 2.47897,-0.13607 z m 8.40475,0.22054 v -6.08162 h 4.73951 4.73951 l -0.025,0.95025 -0.025,0.95025 -3.60956,-0.003 -3.60957,-0.003 0.0239,1.69207 0.0239,1.69206 3.18725,0.0179 3.18726,0.0178 0.025,0.9324 0.025,0.9324 h -3.23442 -3.23442 v 2.49177 2.49178 h -1.10669 -1.10668 z m 12.92608,4.76902 c 0,-1.17563 0.0198,-1.34968 0.18997,-1.66788 0.26212,-0.49017 1.52675,-1.67442 3.26289,-3.05549 0.80345,-0.63913 1.61453,-1.31948 1.80239,-1.51188 1.29376,-1.32498 1.08817,-3.2749 -0.38983,-3.69738 l -0.35014,-0.10008 v -0.9637 c 0,-0.87722 0.0139,-0.95998 0.15493,-0.92237 0.0852,0.0227 0.37406,0.0998 0.64188,0.17119 1.93589,0.51636 3.0395,2.2287 2.76389,4.28838 -0.18818,1.40635 -0.82688,2.22581 -3.25083,4.17089 -0.63302,0.50797 -1.5394,1.28159 -2.01417,1.71917 l -0.86321,0.79559 v 1.04308 1.04308 h -0.97389 -0.97388 z m 3.01019,0.34123 v -0.97137 h 2.39043 2.39044 v 0.97137 0.97137 h -2.39044 -2.39043 z m 9.05104,-5.08914 0.0238,-6.0605 4.75875,-0.0219 4.75875,-0.0219 v 0.92987 c 0,0.51143 -0.0299,0.93321 -0.0664,0.93728 -0.0365,0.004 -1.67995,0.0144 -3.65206,0.0229 l -3.58567,0.0155 -0.0261,1.638 c -0.0202,1.26981 -3.3e-4,1.65386 0.0885,1.70852 0.0631,0.0388 1.52898,0.0688 3.25762,0.0666 l 3.14299,-0.004 v 0.91205 0.91205 l -3.23152,0.0422 -3.23153,0.0422 -0.0235,2.47066 -0.0235,2.47066 h -1.10698 -1.10699 z m 13.87947,-0.0211 v -6.08162 h 1.10669 1.10669 v 5.11025 5.11025 l 3.20938,0.01 c 1.76517,0.005 3.26915,0.0149 3.34219,0.0211 0.10783,0.009 0.13751,0.19005 0.15784,0.96162 l 0.025,0.95026 h -4.47391 -4.47391 z m 14.51972,3.67705 v -2.40456 l -0.73697,-1.0797 c -0.80754,-1.18307 -1.59382,-2.33079 -3.14021,-4.58369 -0.55752,-0.81223 -1.03303,-1.52492 -1.05669,-1.58375 -0.0335,-0.0833 0.24043,-0.10697 1.23653,-0.10697 h 1.27956 l 1.55311,2.34396 c 0.85422,1.28917 1.64119,2.48649 1.74885,2.6607 0.10765,0.17422 0.22781,0.31676 0.26702,0.31676 0.0672,0 3.414672,-4.95989 3.513782,-5.20628 0.0361,-0.0899 0.32791,-0.11514 1.33006,-0.11514 1.01026,0 1.27444,0.0232 1.24004,0.1087 -0.0241,0.0598 -0.60958,0.92044 -1.30119,1.91257 -0.6916,0.99212 -1.79173,2.5781 -2.44472,3.52438 l -1.18727,1.72052 v 2.44853 2.44854 h -1.150952 -1.15095 z m -40.42205,-6.59144 c -0.0332,-0.16895 -0.0423,-0.60615 -0.0201,-0.97155 0.0839,-1.38248 1.08662,-2.60218 2.48897,-3.02751 1.04259,-0.31622 0.94561,-0.3876 0.94561,0.69607 v 0.94649 l -0.3099,0.10691 c -0.72057,0.24859 -1.19519,0.88913 -1.19519,1.613 0,0.29471 -0.0357,0.4257 -0.11601,0.4257 -0.0638,0 -0.36143,0.0918 -0.66137,0.2039 -0.29994,0.11215 -0.66376,0.22872 -0.80848,0.25904 -0.24737,0.0518 -0.26675,0.0367 -0.32353,-0.25205 z m 8.79752,-7.12976 c -2.06247,-0.83952 -5.58051,-1.75401 -8.61455,-2.2393 -3.65322,-0.58433 -5.04176,-0.67988 -9.87164,-0.67926 -4.49728,5.7e-4 -5.52827,0.0556 -8.80922,0.47043 -3.20349,0.40501 -6.12516,0.74861 -7.43692,0.8746 -0.779108,0.0748 -1.775125,0.17277 -2.213372,0.21763 -1.848946,0.18928 -5.886233,0.35258 -7.525461,0.30439 -3.484712,-0.10243 -5.160626,-0.38198 -7.791065,-1.29959 l -1.150953,-0.4015 1.593627,-0.0545 c 3.973417,-0.13579 8.65612,-0.7412 14.608247,-1.88863 5.421757,-1.0452 10.537607,-1.50055 14.727957,-1.31092 2.05087,0.0928 2.17046,0.10177 3.99716,0.29959 5.63248,0.60995 11.64644,2.36098 17.40331,5.06716 1.80978,0.85074 2.27216,1.12396 1.08288,0.63986 z m 5.28541,-1.23784 c -0.0974,-0.0137 -0.61531,-0.0683 -1.15095,-0.12129 -1.93374,-0.19144 -4.45641,-0.72742 -6.55158,-1.39197 -0.19477,-0.0618 -0.67286,-0.20791 -1.06241,-0.32473 -0.38956,-0.11682 -1.68438,-0.51727 -2.87738,-0.88989 -6.04465,-1.88798 -8.9392,-2.55245 -13.19169,-3.02826 -1.85693,-0.20778 -7.82398,-0.20765 -10.00444,2e-4 -3.07438,0.29308 -5.7146,0.65063 -8.307564,1.12507 -0.649278,0.1188 -1.197632,0.19966 -1.218564,0.17969 -0.05504,-0.0525 1.694497,-0.82145 2.905537,-1.27701 3.073741,-1.15626 6.037471,-1.94409 9.232361,-2.45419 4.33176,-0.69161 8.91849,-0.63146 12.90975,0.16931 0.33187,0.0666 0.64063,0.12106 0.68614,0.12106 0.0496,0 0.0828,-1.09877 0.0828,-2.74356 v -2.74357 l -0.1992,-0.0389 c -0.10956,-0.0214 -0.45817,-0.0614 -0.77468,-0.0888 -0.31651,-0.0274 -0.77468,-0.0853 -1.01815,-0.12863 -0.24347,-0.0433 -0.82116,-0.14102 -1.28375,-0.2171 -0.4626,-0.0761 -1.04029,-0.19204 -1.28376,-0.25766 -0.24347,-0.0656 -1.08012,-0.28599 -1.85923,-0.48972 -1.507,-0.39404 -4.64829,-1.34327 -5.6485,-1.70685 -0.57892,-0.21043 -1.12442,-0.55644 -1.12442,-0.71321 0,-0.14118 0.41201,-0.33264 0.89222,-0.4146 0.65161,-0.11121 2.04302,-0.23464 3.81048,-0.33802 1.50782,-0.0882 1.99892,-0.19087 2.45641,-0.51357 0.32564,-0.22969 0.47881,-0.56521 0.76903,-1.68459 0.4441,-1.71288 1.60407,-4.31645 2.72761,-6.12215 l 0.36684,-0.58957 v -0.97712 -0.97712 l 1.55924,-2.23433 c 1.57468,-2.256456 2.7497,-4.014425 3.046,-4.557164 0.3261,-0.597326 0.27264,-3.262189 -0.0923,-4.603449 -0.30903,-1.135637 -0.49726,-1.647105 -0.60614,-1.647105 -0.13495,0 -0.19797,0.113372 -0.68082,1.22477 -0.20183,0.464569 -0.5,1.148751 -0.66259,1.520405 -0.1626,0.371655 -0.36042,0.922802 -0.4396,1.224771 -0.21887,0.834709 -0.35721,1.191019 -0.78963,2.033713 -0.50529,0.984681 -0.55267,1.301741 -0.36286,2.427718 0.1725,1.023331 0.11582,1.493491 -0.18006,1.493491 -0.11748,0 -0.17896,-0.0665 -0.19532,-0.21117 -0.0891,-0.787924 -0.21011,-0.96163 -0.37743,-0.54176 -0.0808,0.20281 -0.0356,0.63949 0.14576,1.40755 0.0857,0.36294 -0.1739,0.29517 -0.66534,-0.17368 -0.69598,-0.66401 -0.78348,-1.429293 -0.27263,-2.384626 0.0936,-0.175087 0.20682,-0.521573 0.25156,-0.769967 0.35742,-1.984695 0.96032,-4.086721 1.86288,-6.494961 0.14881,-0.397054 0.3707,-1.176261 0.4931,-1.731572 0.27754,-1.259201 0.68251,-2.088127 1.22877,-2.515185 0.21265,-0.166237 0.91961,-0.556267 1.57105,-0.866732 1.58574,-0.755746 2.28059,-1.181462 2.34827,-1.4387126 0.11563,-0.439538 -0.007,-1.245393 -0.23479,-1.538707 -0.18413,-0.237447 -0.21692,-0.370049 -0.20886,-0.84467 0.027,-1.590757 1.17369,-2.591256 2.64643,-2.309077 1.41518,0.271151 1.7947,0.825611 1.69218,2.472233 -0.0679,1.090269 -0.2421,1.695019 -0.55624,1.930765 -0.17831,0.133811 -0.24206,0.270029 -0.27378,0.5849346 -0.0477,0.473602 -0.0481,0.473251 0.77313,0.749427 0.72869,0.245068 1.65342,0.768028 2.08331,1.178164 0.58332,0.556525 0.66393,0.855785 0.66393,2.464926 0,2.166656 0.1395,3.526432 0.45534,4.438354 0.35678,1.030142 0.44467,2.08753 0.37611,4.525024 -0.0517,1.838532 -0.042,2.039992 0.13184,2.730732 0.10321,0.41016 0.18766,0.90574 0.18766,1.10129 0,0.42254 -0.31915,1.07195 -0.58816,1.19677 -0.10437,0.0484 -0.25474,0.1395 -0.33415,0.20238 -0.23025,0.1823 -0.26474,0.0471 -0.14756,-0.57844 0.12281,-0.65563 0.0429,-0.93619 -0.26669,-0.93619 -0.16242,0 -0.17373,0.0359 -0.11963,0.3801 0.0766,0.48752 -0.1333,0.53074 -0.31025,0.0639 -0.18144,-0.47869 -0.12858,-0.82661 0.2061,-1.35649 0.527,-0.83439 0.51004,-1.22221 -0.13743,-3.141899 -0.44753,-1.326894 -0.64986,-2.332221 -0.77972,-3.874151 -0.10753,-1.276739 -0.19665,-1.652524 -0.3783,-1.595148 -0.11964,0.03779 -0.14515,0.247372 -0.38073,3.127275 -0.12153,1.485627 -0.13125,1.981867 -0.0506,2.581963 0.13468,1.001896 0.12572,1.84051 -0.0368,3.4405 -0.15918,1.56753 -0.36198,2.40434 -0.83781,3.45702 l -0.34363,0.7602 -0.0386,2.49178 c -0.0431,2.78482 -0.12207,3.3295 -0.63081,4.35072 -0.28686,0.57583 -0.58008,1.39447 -0.58008,1.61953 0,0.0797 0.14979,0.11137 0.52678,0.11137 0.77441,0 5.38306,0.38497 7.08721,0.59201 0.36521,0.0444 1.38115,0.1587 2.25764,0.25408 2.41333,0.26262 3.89587,0.57041 4.07432,0.84589 0.2911,0.44937 -1.63835,1.0347 -5.71221,1.7329 -4.17361,0.7153 -7.00531,0.9674 -10.86616,0.9674 h -2.59113 v 2.86483 c 0,2.003 -0.0292,2.87413 -0.0971,2.89572 -0.0534,0.017 0.19561,0.10153 0.55334,0.1879 0.94,0.22694 3.78653,1.06475 5.43131,1.59858 0.7791,0.25287 2.52395,0.82383 3.87742,1.2688 5.17789,1.70229 7.73962,2.34211 10.9079,2.72439 1.65251,0.19939 4.63404,0.20164 6.10522,0.005 0.58231,-0.078 1.10024,-0.14156 1.15096,-0.14128 0.14548,8.2e-4 -0.33803,0.22272 -1.21327,0.55681 -1.72428,0.65817 -3.7297,1.10242 -5.86584,1.29941 -0.79763,0.0736 -3.63154,0.10008 -4.07261,0.0381 z m -12.73655,-18.38707 c -0.0316,-0.33681 -0.0825,-1.22054 -0.11308,-1.96385 -0.0457,-1.11101 -0.0279,-1.47922 0.0998,-2.06944 0.23874,-1.10324 0.0689,-2.67954 -0.31654,-2.93709 -0.26603,-0.17777 -0.43941,-0.93006 -0.51433,-2.23166 -0.0569,-0.98884 -0.10465,-1.27376 -0.2626,-1.56749 -0.10617,-0.19744 -0.24486,-0.35899 -0.30819,-0.35899 -0.28972,0 -1.90323,1.83642 -2.66584,3.03413 l -0.32502,0.51045 -0.63643,-0.0471 -0.63643,-0.0471 -0.57548,0.76454 c -0.78405,1.04164 -1.07277,1.55742 -1.41196,2.52238 -0.39252,1.11668 -0.5402,1.41394 -0.99609,2.00497 -0.94156,1.22067 -1.75309,2.49015 -1.75309,2.74237 0,0.0584 1.17833,0.0911 3.56353,0.099 2.96253,0.01 5.66458,0.067 6.69722,0.14187 0.21048,0.0153 0.21162,0.0109 0.15455,-0.597 z m 19.28813,15.5964 c -3.39684,-0.24819 -9.36407,-1.85958 -16.06907,-4.33926 -0.90084,-0.33316 -1.91441,-0.70503 -2.25237,-0.82638 -0.33796,-0.12135 -0.56805,-0.23541 -0.5113,-0.25345 0.10847,-0.0345 1.44085,0.2172 3.73755,0.70608 3.04495,0.64813 3.745,0.81827 7.12706,1.73213 4.43145,1.19741 6.75299,1.61368 9.07482,1.62718 1.58236,0.009 2.38949,-0.11725 3.18725,-0.49932 0.85638,-0.41015 1.23949,-0.93187 1.23949,-1.68796 0,-0.45594 -0.0391,-0.58279 -0.28774,-0.93282 -0.74682,-1.05148 -2.35949,-1.58734 -4.75875,-1.58124 -1.23922,0.003 -1.2684,-7.4e-4 -0.84108,-0.11212 0.24347,-0.0635 0.91071,-0.17462 1.48275,-0.24703 1.69263,-0.21425 3.2455,0.0212 4.60401,0.6981 3.34305,1.6657 2.08654,4.67725 -2.30405,5.52224 -0.81351,0.15657 -2.57546,0.25619 -3.42857,0.19385 z m 1.66972,-9.47254 c 5.03196,-6.88438 6.34777,-15.98637 3.48923,-24.136432 -1.80602,-5.149207 -5.30134,-9.759456 -9.93983,-13.1104356 -3.44276,-2.487151 -7.58401,-4.232777 -11.86366,-5.00079 -1.87327,-0.33617 -3.11681,-0.442416 -5.22356,-0.44629 -2.00966,-0.0037 -2.95804,0.06181 -4.69234,0.324107 -7.41717,1.12177 -14.11873,5.045631 -18.59434,10.8872676 -2.533231,3.306405 -4.212903,7.050455 -5.038783,11.231623 -0.311179,1.5754 -0.359826,2.22631 -0.359826,4.81461 0,2.66267 0.08218,3.63105 0.450852,5.3129 0.219576,1.00167 0.06804,0.70465 -0.21926,-0.42977 -0.861998,-3.40366 -1.034727,-7.17326 -0.492049,-10.738351 0.846024,-5.557908 3.601254,-10.942565 7.782606,-15.2098616 1.27279,-1.29895 3.61407,-3.158527 5.29384,-4.20467 3.7451,-2.332405 7.96398,-3.79020096 12.68205,-4.38215896 1.58091,-0.198351 5.03021,-0.201357 6.72864,-0.0059 4.73389,0.544883 9.0763,2.04705396 12.89212,4.45977096 1.77766,1.124004 2.90429,1.995982 4.44627,3.441301 2.45003,2.2964486 4.03004,4.3353516 5.6015,7.2283896 2.42883,4.471439 3.50297,9.351142 3.20732,14.57055 -0.26861,4.74193 -1.93949,9.57297 -4.71808,13.64141 -0.54352,0.79584 -1.79408,2.40731 -1.86816,2.40731 -0.0237,0 0.17229,-0.29458 0.43546,-0.65462 z"
       id="path1" />
  </g>
</svg>
